<svg xmlns="http://www.w3.org/2000/svg" version="1.1" id="Capa_1" x="0px" y="0px"
	 width="1080px" height="1080px" viewBox="0 0 1080 1080" enable-background="new 0 0 1080 1080">
<path className="trazado2" fill-rule="evenodd" d="M729.282,252.139c-32.24,0-62.758,10.228-92.158,24.512c-15.775,7.664-31.434,15.566-47.189,23.27
	c-18.019,8.812-36.028,12.276-54.021,10.66c16.394,128.388,103.328,226.41,208.196,226.745h1.078
	c84.395-0.271,157.169-63.808,190.912-155.527c-12.948-21.263-28.761-41.155-47.958-59.405
	c-39.179-37.245-85.259-61.83-139.21-68.967c-6.616-0.875-13.155-1.288-19.63-1.288
	C729.296,252.139,729.289,252.139,729.282,252.139 M725.196,0c-4.526,0.914-9.057,2.786-13.358,5.661
	c-33.791,22.581-63.89,49.377-90.503,80.075c-29.625,34.173-53.454,72.071-72.745,114.87c-2.448-4.932-4.042-8.428-5.873-11.795
	c-0.173-0.319-0.341-0.626-0.515-0.944c-4.429,18.694-7.319,38.243-8.487,58.406c9.544,2.64,19.034,1.995,28.778-2.882
	c14.1-7.059,28.392-13.74,42.417-20.943c2.563-1.316,4.955-4,6.23-6.633c31.526-65.013,77.318-117.539,137.088-158.12
	c15.899-10.795,19.115-30.569,8.518-45.342C751.989,5.72,745.375,1.532,738.077,0H725.196z"/>
</svg>