<svg xmlns="http://www.w3.org/2000/svg" version="1.1" id="Capa_1" x="0px" y="0px"
	 width="1080px" height="1080px" viewBox="0 0 1080 1080" enable-background="new 0 0 1080 1080">
<path className="trazado4" fill-rule="evenodd" d="M637.124,276.651c-15.775,7.664-31.434,15.566-47.189,23.27c-30.784,15.055-61.541,14.498-92.236-0.325
	c-15.165-7.325-30.53-14.26-45.482-21.995c-10.913-5.644-21.741-10.294-32.484-13.985c-81.246,11.108-160.278,31.327-228.181,65.096
	c-39.208,39.246-64.169,88.117-78.461,143.702c-23.472,91.289-18.93,182.449,4.851,272.864
	c9.536,36.256,21.527,71.354,36.527,104.978c21.933,7.887,44.15,16.834,65.371,28.636c83.762,46.589,110.995-23.192,239.71-23.192
	c68.113,0,233.081,190.184,316.73,49.182c34.452-58.075,115.691-93.167,181.202-122.424c3.412-10.611,6.604-21.337,9.594-32.166
	c20.416-73.963,27.098-149.165,16.692-225.358c-10.57-77.4-37.691-147.465-95.626-202.539
	c-16.854-16.021-34.984-29.701-54.47-40.656c-40.053-13.965-85.729-22.105-137.157-26.203
	C676.124,259.676,656.385,267.293,637.124,276.651"/>

</svg>