<svg version="1.1" id="Capa_1" x="0px" y="0px"
	 width="1080px" height="1080px" viewBox="0 0 1080 1080" enable-background="new 0 0 1080 1080">
<g id="Capa_18">
	<rect fill="#1CB473" width="1080" height="1080"/>
</g>
<path className="trazado5" fill="none" d="M130.335,787.406c22.801,69.688,56.022,134.394,103.856,191.582c34.745,41.541,75.12,75.858,127.983,92.551
	c9.577,3.024,19.414,5.224,29.132,7.804h42.195c32.438-5.83,61.08-21.131,89.998-35.836c12.97-6.596,26.327-6.351,39.423-0.031
	c9.444,4.558,18.432,10.23,28.176,13.958c20.412,7.811,41.19,14.663,61.817,21.909h42.195c7.024-1.795,14.07-3.51,21.07-5.396
	c49.208-13.255,88.268-42.437,122.056-79.196c55.543-60.427,92.446-130.852,117.635-207.345H130.335z"/>
<path className="trazado4" fill="none" d="M637.124,276.651c-15.775,7.664-31.434,15.566-47.189,23.27c-30.784,15.055-61.541,14.498-92.236-0.325
	c-15.165-7.325-30.53-14.26-45.482-21.995c-10.913-5.644-21.741-10.294-32.484-13.985c-81.246,11.108-160.278,31.327-228.181,65.096
	c-39.208,39.246-64.169,88.117-78.461,143.702c-23.472,91.289-18.93,182.449,4.851,272.864
	c9.536,36.256,21.527,71.354,36.527,104.978c21.933,7.887,44.15,16.834,65.371,28.636c83.762,46.589,110.995-23.192,239.71-23.192
	c68.113,0,233.081,190.184,316.73,49.182c34.452-58.075,115.691-93.167,181.202-122.424c3.412-10.611,6.604-21.337,9.594-32.166
	c20.416-73.963,27.098-149.165,16.692-225.358c-10.57-77.4-37.691-147.465-95.626-202.539
	c-16.854-16.021-34.984-29.701-54.47-40.656c-40.053-13.965-85.729-22.105-137.157-26.203
	C676.124,259.676,656.385,267.293,637.124,276.651"/>
<path className="trazado3" fill="none" d="M308.134,504.992c0,106.748,114.492,193.283,255.726,193.283c141.232,0,255.725-86.535,255.725-193.283
	c0-106.747-114.492-193.283-255.725-193.283C422.626,311.709,308.134,398.245,308.134,504.992"/>
<path className="trazado1" fill="none" d="M229.211,297.159c-61.538,43.099-97.699,103.602-116.121,175.255c-0.035,0.135-0.069,0.268-0.103,0.402
	c47.882,56.529,116.097,91.874,191.801,91.874c110.049,0,204.267-74.671,243.21-180.56V310.9
	c-16.783,0.627-33.547-3.214-50.3-11.304c-15.165-7.325-30.53-14.26-45.482-21.995c-32.691-16.91-64.628-24.894-95.837-24.895
	C312.626,252.702,270.292,268.387,229.211,297.159 M256.374,64.638c0.102,44.721,11.586,86.565,31.678,126.336
	c3.209,6.349,6.686,6.834,13.224,5.908c21.444-3.039,43.066-7.103,64.578-6.876c33.601,0.355,65.848,9.487,96.525,23.257
	c20.789,9.333,41.317,19.267,61.773,29.316c7.996,3.928,15.887,5.801,23.846,5.074v-48.244c-2.121-4.314-3.602-7.51-5.281-10.598
	C488.193,88.555,404.621,34.706,289.867,31.144c-0.453-0.015-0.904-0.021-1.35-0.021C268.879,31.122,256.329,44.664,256.374,64.638"
	/>
<path className="trazado2" fill="none" d="M729.282,252.139c-32.24,0-62.758,10.228-92.158,24.512c-15.775,7.664-31.434,15.566-47.189,23.27
	c-18.019,8.812-36.028,12.276-54.021,10.66c16.394,128.388,103.328,226.41,208.196,226.745h1.078
	c84.395-0.271,157.169-63.808,190.912-155.527c-12.948-21.263-28.761-41.155-47.958-59.405
	c-39.179-37.245-85.259-61.83-139.21-68.967c-6.616-0.875-13.155-1.288-19.63-1.288
	C729.296,252.139,729.289,252.139,729.282,252.139 M725.196,0c-4.526,0.914-9.057,2.786-13.358,5.661
	c-33.791,22.581-63.89,49.377-90.503,80.075c-29.625,34.173-53.454,72.071-72.745,114.87c-2.448-4.932-4.042-8.428-5.873-11.795
	c-0.173-0.319-0.341-0.626-0.515-0.944c-4.429,18.694-7.319,38.243-8.487,58.406c9.544,2.64,19.034,1.995,28.778-2.882
	c14.1-7.059,28.392-13.74,42.417-20.943c2.563-1.316,4.955-4,6.23-6.633c31.526-65.013,77.318-117.539,137.088-158.12
	c15.899-10.795,19.115-30.569,8.518-45.342C751.989,5.72,745.375,1.532,738.077,0H725.196z"/>
<path className="trazadoFlor" fill="#EE5A9F" d="M386.994,173.811c8.295,11.505,3.529,15.518-6.47,5.739c-1.934,14.328-9.379,14.108-10.066-0.603
	c-12.805,7.614-17.298,1.217-6.298-8.395c-13.554-2.908-12.863-8.751,1.162-8.141c-8.388-11.327-3.825-15.262,6.222-5.641
	c1.788-14.43,9.451-14.292,10.314,0.505c12.765-7.628,17.247-1.281,6.287,8.339C401.717,168.5,401.036,174.39,386.994,173.811"/>
</svg>