<svg xmlns="http://www.w3.org/2000/svg" version="1.1" id="Capa_1" x="0px" y="0px"
	 width="1080px" height="1080px" viewBox="0 0 1080 1080" enable-background="new 0 0 1080 1080">


<path className="trazado1" fill-rule="evenodd" d="M229.211,297.159c-61.538,43.099-97.699,103.602-116.121,175.255c-0.035,0.135-0.069,0.268-0.103,0.402
	c47.882,56.529,116.097,91.874,191.801,91.874c110.049,0,204.267-74.671,243.21-180.56V310.9
	c-16.783,0.627-33.547-3.214-50.3-11.304c-15.165-7.325-30.53-14.26-45.482-21.995c-32.691-16.91-64.628-24.894-95.837-24.895
	C312.626,252.702,270.292,268.387,229.211,297.159 M256.374,64.638c0.102,44.721,11.586,86.565,31.678,126.336
	c3.209,6.349,6.686,6.834,13.224,5.908c21.444-3.039,43.066-7.103,64.578-6.876c33.601,0.355,65.848,9.487,96.525,23.257
	c20.789,9.333,41.317,19.267,61.773,29.316c7.996,3.928,15.887,5.801,23.846,5.074v-48.244c-2.121-4.314-3.602-7.51-5.281-10.598
	C488.193,88.555,404.621,34.706,289.867,31.144c-0.453-0.015-0.904-0.021-1.35-0.021C268.879,31.122,256.329,44.664,256.374,64.638"
	/>

</svg>