<svg xmlns="http://www.w3.org/2000/svg" version="1.1" id="Capa_1" x="0px" y="0px"
	 width="1080px" height="1080px" viewBox="0 0 1080 1080" enable-background="new 0 0 1080 1080">

<path className="trazado5" fill-rule="evenodd" d="M130.335,787.406c22.801,69.688,56.022,134.394,103.856,191.582c34.745,41.541,75.12,75.858,127.983,92.551
	c9.577,3.024,19.414,5.224,29.132,7.804h42.195c32.438-5.83,61.08-21.131,89.998-35.836c12.97-6.596,26.327-6.351,39.423-0.031
	c9.444,4.558,18.432,10.23,28.176,13.958c20.412,7.811,41.19,14.663,61.817,21.909h42.195c7.024-1.795,14.07-3.51,21.07-5.396
	c49.208-13.255,88.268-42.437,122.056-79.196c55.543-60.427,92.446-130.852,117.635-207.345H130.335z"/>

</svg>